# xmcd
#
# Track frame offsets:
#	150
#	22221
#	44148
#	59209
#	77915
#	96706
#	116791
#	135317
#	159399
#	172596
#	192044
#	204342
#	216185
#	230087
#	244061
#	263689
#	282546
#	312835
#
# Disc length: 4432 seconds
#
# Revision: 1
# Processed by: cddbd v1.5.2PL0 Copyright (c) Steve Scherf et al.
# Submitted via: audiograbber 1.83.01
#
DISCID=10114e12
DTITLE=Kraina Lagodnosci - Kraina Lagodnosci - Czterolistna
DYEAR=1997
DGENRE=Ballad
TTITLE0=Marek Grechuta - Dni ktorych nie znamy
TTITLE1=Grzegorz Turnau - Wiem
TTITLE2=Wolna Grupa Bukowina - Chyli sie dzien do kresu
TTITLE3=Agnieszka Chrzanowska - Kalendarz
TTITLE4=Robert Kasprzycki - Na do widzenia
TTITLE5=Lidia Jazgar i Galicja - Slowa (zaklecia)
TTITLE6=Pod Buda - Zal za Piotrem S.
TTITLE7=Raz Dwa Trzy - Amulet
TTITLE8=Mariusz Lubomski - A moj pies jest inny
TTITLE9=Tomasz Wachnowski - Byloby milo
TTITLE10=Antonina Krzyszton - Czemu ty
TTITLE11=Tadeusz Wozniak - Ile zapragna
TTITLE12=Stare Dobre Malzenstwo - U studni
TTITLE13=Barbara Raduszkiewicz - Czasowo Dolne
TTITLE14=Jerzy Filar - Cienie
TTITLE15=Miroslaw Czyzykiewicz - Sam na sam
TTITLE16=Elzbieta Wojnowska - Zycie moje
TTITLE17=Czerwony Tulipan - A jednak po nas cos zostanie
EXTD=
EXTT0=
EXTT1=
EXTT2=
EXTT3=
EXTT4=
EXTT5=
EXTT6=
EXTT7=
EXTT8=
EXTT9=
EXTT10=
EXTT11=
EXTT12=
EXTT13=
EXTT14=
EXTT15=
EXTT16=
EXTT17=
PLAYORDER=
